<mxfile host="app.diagrams.net" agent="Mozilla/5.0 (Macintosh; Intel Mac OS X 10_15_7) AppleWebKit/537.36 (KHTML, like Gecko) Chrome/128.0.0.0 Safari/537.36" version="24.8.0">
  <diagram name="Page-1" id="igfEqRVyi_E9jIVf25Lc">
    <mxGraphModel dx="954" dy="1812" grid="1" gridSize="10" guides="1" tooltips="1" connect="1" arrows="1" fold="1" page="1" pageScale="1" pageWidth="1920" pageHeight="1200" math="0" shadow="0">
      <root>
        <mxCell id="0" />
        <mxCell id="1" parent="0" />
        <mxCell id="FphSXcvxW1ZL78le-n1h-27" value="" style="edgeStyle=orthogonalEdgeStyle;rounded=0;orthogonalLoop=1;jettySize=auto;html=1;entryX=0.5;entryY=0;entryDx=0;entryDy=0;entryPerimeter=0;" edge="1" parent="1" source="FphSXcvxW1ZL78le-n1h-21" target="FphSXcvxW1ZL78le-n1h-5">
          <mxGeometry relative="1" as="geometry">
            <mxPoint x="570" y="70" as="targetPoint" />
          </mxGeometry>
        </mxCell>
        <mxCell id="FphSXcvxW1ZL78le-n1h-21" value="" style="rounded=0;whiteSpace=wrap;html=1;dashed=1;" vertex="1" parent="1">
          <mxGeometry x="350" y="-80" width="120" height="300" as="geometry" />
        </mxCell>
        <mxCell id="FphSXcvxW1ZL78le-n1h-2" value="AWS Target Group" style="points=[[0,0],[0.25,0],[0.5,0],[0.75,0],[1,0],[1,0.25],[1,0.5],[1,0.75],[1,1],[0.75,1],[0.5,1],[0.25,1],[0,1],[0,0.75],[0,0.5],[0,0.25]];outlineConnect=0;gradientColor=none;html=1;whiteSpace=wrap;fontSize=12;fontStyle=0;container=1;pointerEvents=0;collapsible=0;recursiveResize=0;shape=mxgraph.aws4.group;grIcon=mxgraph.aws4.group_spot_fleet;strokeColor=#D86613;fillColor=none;verticalAlign=top;align=left;spacingLeft=30;fontColor=#D86613;dashed=0;" vertex="1" parent="1">
          <mxGeometry x="280" y="240" width="200" height="170" as="geometry" />
        </mxCell>
        <mxCell id="FphSXcvxW1ZL78le-n1h-1" value="" style="outlineConnect=0;dashed=0;verticalLabelPosition=bottom;verticalAlign=top;align=center;html=1;shape=mxgraph.aws3.instance;fillColor=#F58534;gradientColor=none;" vertex="1" parent="FphSXcvxW1ZL78le-n1h-2">
          <mxGeometry x="30" y="50" width="60" height="63" as="geometry" />
        </mxCell>
        <mxCell id="FphSXcvxW1ZL78le-n1h-3" value="" style="outlineConnect=0;dashed=0;verticalLabelPosition=bottom;verticalAlign=top;align=center;html=1;shape=mxgraph.aws3.instance;fillColor=#F58534;gradientColor=none;" vertex="1" parent="FphSXcvxW1ZL78le-n1h-2">
          <mxGeometry x="110" y="50" width="60" height="63" as="geometry" />
        </mxCell>
        <mxCell id="FphSXcvxW1ZL78le-n1h-11" value="Servers handling live traffic" style="text;html=1;align=center;verticalAlign=middle;whiteSpace=wrap;rounded=0;fontStyle=1" vertex="1" parent="FphSXcvxW1ZL78le-n1h-2">
          <mxGeometry x="40" y="120" width="120" height="30" as="geometry" />
        </mxCell>
        <mxCell id="FphSXcvxW1ZL78le-n1h-4" value="Server removed from TG&lt;div&gt;for deployment&lt;/div&gt;" style="outlineConnect=0;dashed=0;verticalLabelPosition=bottom;verticalAlign=top;align=center;html=1;shape=mxgraph.aws3.instance;fillColor=#F58534;gradientColor=none;" vertex="1" parent="1">
          <mxGeometry x="540" y="290" width="60" height="63" as="geometry" />
        </mxCell>
        <mxCell id="FphSXcvxW1ZL78le-n1h-6" value="" style="edgeStyle=orthogonalEdgeStyle;rounded=0;orthogonalLoop=1;jettySize=auto;html=1;" edge="1" parent="1" source="FphSXcvxW1ZL78le-n1h-5" target="FphSXcvxW1ZL78le-n1h-4">
          <mxGeometry relative="1" as="geometry" />
        </mxCell>
        <mxCell id="FphSXcvxW1ZL78le-n1h-5" value="Code Deploy" style="outlineConnect=0;dashed=0;verticalLabelPosition=bottom;verticalAlign=top;align=center;html=1;shape=mxgraph.aws3.codedeploy;fillColor=#759C3E;gradientColor=none;" vertex="1" parent="1">
          <mxGeometry x="536.25" y="120" width="67.5" height="81" as="geometry" />
        </mxCell>
        <mxCell id="FphSXcvxW1ZL78le-n1h-8" value="" style="edgeStyle=orthogonalEdgeStyle;rounded=0;orthogonalLoop=1;jettySize=auto;html=1;entryX=0;entryY=0.5;entryDx=0;entryDy=0;" edge="1" parent="1" source="FphSXcvxW1ZL78le-n1h-7" target="FphSXcvxW1ZL78le-n1h-2">
          <mxGeometry relative="1" as="geometry">
            <mxPoint x="280" y="322" as="targetPoint" />
          </mxGeometry>
        </mxCell>
        <mxCell id="FphSXcvxW1ZL78le-n1h-7" value="&lt;b&gt;Load Balancer&lt;/b&gt;" style="sketch=0;points=[[0,0,0],[0.25,0,0],[0.5,0,0],[0.75,0,0],[1,0,0],[0,1,0],[0.25,1,0],[0.5,1,0],[0.75,1,0],[1,1,0],[0,0.25,0],[0,0.5,0],[0,0.75,0],[1,0.25,0],[1,0.5,0],[1,0.75,0]];outlineConnect=0;fontColor=#232F3E;fillColor=#ED7100;strokeColor=#ffffff;dashed=0;verticalLabelPosition=bottom;verticalAlign=top;align=center;html=1;fontSize=12;fontStyle=0;aspect=fixed;shape=mxgraph.aws4.resourceIcon;resIcon=mxgraph.aws4.elastic_load_balancing;" vertex="1" parent="1">
          <mxGeometry x="110" y="286" width="78" height="78" as="geometry" />
        </mxCell>
        <mxCell id="FphSXcvxW1ZL78le-n1h-19" value="Build Artifact" style="sketch=0;outlineConnect=0;fontColor=#232F3E;gradientColor=none;strokeColor=#ffffff;fillColor=#232F3E;dashed=0;verticalLabelPosition=middle;verticalAlign=bottom;align=center;html=1;whiteSpace=wrap;fontSize=10;fontStyle=1;spacing=3;shape=mxgraph.aws4.productIcon;prIcon=mxgraph.aws4.artifact;" vertex="1" parent="1">
          <mxGeometry x="370" y="90" width="80" height="100" as="geometry" />
        </mxCell>
        <mxCell id="FphSXcvxW1ZL78le-n1h-20" value="AWS S3" style="outlineConnect=0;dashed=0;verticalLabelPosition=bottom;verticalAlign=top;align=center;html=1;shape=mxgraph.aws3.s3;fillColor=#E05243;gradientColor=none;" vertex="1" parent="1">
          <mxGeometry x="370" y="-40" width="76.5" height="93" as="geometry" />
        </mxCell>
        <mxCell id="FphSXcvxW1ZL78le-n1h-25" value="" style="edgeStyle=orthogonalEdgeStyle;rounded=0;orthogonalLoop=1;jettySize=auto;html=1;entryX=-0.033;entryY=0.467;entryDx=0;entryDy=0;entryPerimeter=0;" edge="1" parent="1" source="FphSXcvxW1ZL78le-n1h-22" target="FphSXcvxW1ZL78le-n1h-21">
          <mxGeometry relative="1" as="geometry" />
        </mxCell>
        <mxCell id="FphSXcvxW1ZL78le-n1h-22" value="Jenkins build server" style="image;aspect=fixed;perimeter=ellipsePerimeter;html=1;align=center;shadow=0;dashed=0;spacingTop=3;image=img/lib/active_directory/generic_server.svg;" vertex="1" parent="1">
          <mxGeometry x="220" y="-1.4299999999999997" width="68" height="121.43" as="geometry" />
        </mxCell>
        <mxCell id="FphSXcvxW1ZL78le-n1h-24" value="" style="edgeStyle=orthogonalEdgeStyle;rounded=0;orthogonalLoop=1;jettySize=auto;html=1;" edge="1" parent="1" source="FphSXcvxW1ZL78le-n1h-23" target="FphSXcvxW1ZL78le-n1h-22">
          <mxGeometry relative="1" as="geometry" />
        </mxCell>
        <mxCell id="FphSXcvxW1ZL78le-n1h-23" value="Github" style="dashed=0;outlineConnect=0;html=1;align=center;labelPosition=center;verticalLabelPosition=bottom;verticalAlign=top;shape=mxgraph.webicons.github;gradientColor=#DFDEDE" vertex="1" parent="1">
          <mxGeometry x="50" y="8.08" width="102.4" height="102.4" as="geometry" />
        </mxCell>
      </root>
    </mxGraphModel>
  </diagram>
</mxfile>
